<svg width="252" height="132" viewBox="0 0 252 132" fill="none" xmlns="http://www.w3.org/2000/svg">
<path d="M52.1246 106H53.8606V101.66C53.8606 100.778 53.8466 98.958 53.8466 98.412H53.8606C54.0146 98.692 54.4906 99.476 55.0926 100.512L58.3126 106H60.4266V95.99H58.7326V100.932C58.7326 101.898 58.7466 103.004 58.7466 103.578L58.7326 103.592C58.4666 103.13 57.9766 102.318 57.6406 101.73L54.3086 95.99H52.1246V106ZM65.8569 98.398C63.5469 98.398 62.0209 100.022 62.0209 102.332C62.0209 104.586 63.4629 106.224 65.8289 106.224C68.2089 106.224 69.7069 104.6 69.7069 102.332C69.7069 100.022 68.1809 98.398 65.8569 98.398ZM65.8289 99.826C67.1169 99.826 67.9009 100.862 67.9009 102.318C67.9009 103.816 67.1309 104.796 65.8289 104.796C64.5409 104.796 63.7709 103.816 63.7709 102.318C63.7709 100.862 64.5549 99.826 65.8289 99.826ZM74.8882 106H80.6842V104.446H76.6662V95.99H74.8882V106ZM82.0474 98.65V106H83.7554V98.65H82.0474ZM82.0194 97.586H83.7694V95.99H82.0194V97.586ZM87.6854 106H89.2814L92.1094 98.65H90.2894L89.3934 101.394C89.0154 102.542 88.8334 102.948 88.5394 103.97H88.5114C88.1754 102.906 87.9794 102.416 87.6994 101.562L86.7474 98.65H84.8714C85.7954 101.03 86.7614 103.62 87.6854 106ZM99.8726 102.752C99.8726 102.724 99.8866 102.542 99.8866 102.29C99.8726 100.148 98.6406 98.398 96.2886 98.398C94.0486 98.398 92.5366 100.064 92.5366 102.304C92.5366 104.6 94.0206 106.224 96.3166 106.224C98.0946 106.224 99.3126 105.244 99.7606 103.9H98.0386C97.7306 104.46 97.1846 104.81 96.3586 104.81C95.1686 104.81 94.3566 103.942 94.2446 102.738L99.8726 102.752ZM94.3006 101.52C94.4406 100.358 95.2106 99.728 96.2746 99.728C97.3666 99.728 98.0666 100.512 98.1786 101.52H94.3006ZM101.311 106H102.935V105.496C102.935 105.328 102.921 105.146 102.921 104.964C103.355 105.608 104.195 106.168 105.455 106.168C107.471 106.168 108.857 104.6 108.857 102.304C108.857 100.078 107.527 98.412 105.413 98.412C104.265 98.412 103.425 98.986 103.005 99.588C103.019 99.07 103.019 98.636 103.019 98.132V95.99H101.311V106ZM105.063 99.826C106.351 99.826 107.107 100.932 107.107 102.332C107.107 103.732 106.351 104.782 105.063 104.782C103.733 104.782 102.949 103.718 102.949 102.276C102.949 100.862 103.831 99.826 105.063 99.826ZM113.75 98.398C111.44 98.398 109.914 100.022 109.914 102.332C109.914 104.586 111.356 106.224 113.722 106.224C116.102 106.224 117.6 104.6 117.6 102.332C117.6 100.022 116.074 98.398 113.75 98.398ZM113.722 99.826C115.01 99.826 115.794 100.862 115.794 102.318C115.794 103.816 115.024 104.796 113.722 104.796C112.434 104.796 111.664 103.816 111.664 102.318C111.664 100.862 112.448 99.826 113.722 99.826ZM120.554 100.946C120.638 100.232 121.072 99.742 122.038 99.742C123.004 99.742 123.438 100.204 123.466 101.422C122.99 101.464 122.402 101.534 121.772 101.618C120.218 101.842 118.58 102.416 118.58 103.956C118.58 105.342 119.672 106.14 121.198 106.14C122.388 106.14 123.228 105.622 123.634 105.02C123.634 105.454 123.676 105.79 123.718 106H125.286C125.174 105.468 125.118 104.74 125.118 103.718V101.66C125.118 99.154 123.872 98.412 122.08 98.412C120.162 98.412 119 99.518 118.93 100.946H120.554ZM123.48 102.92C123.48 104.166 122.906 104.922 121.674 104.922C120.904 104.922 120.4 104.586 120.4 103.914C120.4 103.13 121.254 102.85 123.116 102.654L123.494 102.612C123.48 102.752 123.48 102.906 123.48 102.92ZM126.987 98.636C127.001 99.084 127.001 99.504 127.001 99.966V106H128.709V102.528C128.709 101.016 128.947 100.064 130.277 100.064C130.445 100.064 130.641 100.078 130.767 100.12V98.496C130.669 98.482 130.543 98.468 130.361 98.468C129.521 98.468 128.835 98.888 128.583 99.63C128.597 99.476 128.597 99.308 128.597 99.14V98.636H126.987ZM138.993 106V95.99H137.285V98.132C137.285 98.636 137.285 99.07 137.299 99.588C136.893 98.986 136.053 98.412 134.891 98.412C132.791 98.412 131.461 100.078 131.461 102.304C131.461 104.6 132.847 106.168 134.849 106.168C136.109 106.168 136.963 105.608 137.383 104.964V106H138.993ZM135.255 99.826C136.487 99.826 137.369 100.862 137.369 102.276C137.369 103.718 136.571 104.782 135.241 104.782C133.967 104.782 133.211 103.732 133.211 102.332C133.211 100.932 133.967 99.826 135.255 99.826ZM143.844 103.676C144.124 105.398 145.202 106.224 147.022 106.224C148.73 106.224 149.948 105.258 149.948 103.802C149.948 102.542 149.206 102.038 147.694 101.632L146.882 101.422C146.14 101.226 145.748 101.058 145.748 100.582C145.748 100.134 146.126 99.77 146.882 99.77C147.61 99.77 148.1 100.106 148.31 100.708H149.822C149.696 99.252 148.506 98.412 146.924 98.412C145.286 98.412 144.096 99.336 144.096 100.68C144.096 102.024 145.048 102.528 146.238 102.85L147.05 103.074C147.806 103.284 148.352 103.424 148.352 103.942C148.352 104.502 147.778 104.852 147.05 104.852C146.21 104.852 145.65 104.404 145.454 103.676H143.844ZM158.306 102.752C158.306 102.724 158.32 102.542 158.32 102.29C158.306 100.148 157.074 98.398 154.722 98.398C152.482 98.398 150.97 100.064 150.97 102.304C150.97 104.6 152.454 106.224 154.75 106.224C156.528 106.224 157.746 105.244 158.194 103.9H156.472C156.164 104.46 155.618 104.81 154.792 104.81C153.602 104.81 152.79 103.942 152.678 102.738L158.306 102.752ZM152.734 101.52C152.874 100.358 153.644 99.728 154.708 99.728C155.8 99.728 156.5 100.512 156.612 101.52H152.734ZM159.787 106H161.495V95.99H159.787V106ZM170.365 102.752C170.365 102.724 170.379 102.542 170.379 102.29C170.365 100.148 169.133 98.398 166.781 98.398C164.541 98.398 163.029 100.064 163.029 102.304C163.029 104.6 164.513 106.224 166.809 106.224C168.587 106.224 169.805 105.244 170.253 103.9H168.531C168.223 104.46 167.677 104.81 166.851 104.81C165.661 104.81 164.849 103.942 164.737 102.738L170.365 102.752ZM164.793 101.52C164.933 100.358 165.703 99.728 166.767 99.728C167.859 99.728 168.559 100.512 168.671 101.52H164.793ZM176.871 103.648C176.591 104.348 176.003 104.81 175.163 104.81C173.861 104.81 173.091 103.802 173.091 102.29C173.091 100.862 173.861 99.826 175.093 99.826C175.975 99.826 176.493 100.316 176.787 101.086H178.565C178.215 99.518 177.025 98.398 175.121 98.398C172.839 98.398 171.341 100.078 171.341 102.318C171.341 104.572 172.769 106.224 175.093 106.224C176.983 106.224 178.145 105.118 178.551 103.648H176.871ZM182.037 96.662H180.329V98.65H179.223V99.924H180.329V104.236C180.329 105.692 181.225 106.14 182.611 106.14C182.919 106.14 183.129 106.112 183.269 106.084V104.824C183.199 104.838 183.073 104.852 182.919 104.852C182.359 104.852 182.037 104.628 182.037 103.942V99.924H183.409V98.65H182.037V96.662ZM191.556 102.752C191.556 102.724 191.57 102.542 191.57 102.29C191.556 100.148 190.324 98.398 187.972 98.398C185.732 98.398 184.22 100.064 184.22 102.304C184.22 104.6 185.704 106.224 188 106.224C189.778 106.224 190.996 105.244 191.444 103.9H189.722C189.414 104.46 188.868 104.81 188.042 104.81C186.852 104.81 186.04 103.942 185.928 102.738L191.556 102.752ZM185.984 101.52C186.124 100.358 186.894 99.728 187.958 99.728C189.05 99.728 189.75 100.512 189.862 101.52H185.984ZM200.079 106V95.99H198.371V98.132C198.371 98.636 198.371 99.07 198.385 99.588C197.979 98.986 197.139 98.412 195.977 98.412C193.877 98.412 192.547 100.078 192.547 102.304C192.547 104.6 193.933 106.168 195.935 106.168C197.195 106.168 198.049 105.608 198.469 104.964V106H200.079ZM196.341 99.826C197.573 99.826 198.455 100.862 198.455 102.276C198.455 103.718 197.657 104.782 196.327 104.782C195.053 104.782 194.297 103.732 194.297 102.332C194.297 100.932 195.053 99.826 196.341 99.826Z" fill="#777E8B"/>
<path d="M39.2706 123.158C39.4806 125.118 40.8946 126.196 42.9946 126.196C45.1366 126.196 46.5926 125.104 46.5926 123.256C46.5926 121.604 45.3326 120.96 43.6946 120.442L43.0086 120.204C41.6786 119.756 40.8666 119.35 40.8666 118.286C40.8666 117.32 41.6506 116.732 42.9526 116.732C44.2406 116.732 45.0106 117.334 45.2346 118.58H46.3966C46.2146 116.788 45.0246 115.794 42.9946 115.794C40.8946 115.794 39.6346 116.844 39.6346 118.412C39.6346 119.938 40.6846 120.68 42.4206 121.226L43.0226 121.422C44.2686 121.814 45.3466 122.22 45.3466 123.41C45.3466 124.53 44.4646 125.244 43.0226 125.244C41.5246 125.244 40.6566 124.474 40.4606 123.158H39.2706ZM54.9721 122.514C54.9721 122.472 54.9861 122.402 54.9861 122.262C54.9861 120.302 53.9221 118.454 51.5001 118.454C49.2741 118.454 47.8041 120.036 47.8041 122.346C47.8041 124.572 49.1761 126.182 51.4861 126.182C53.1661 126.182 54.3561 125.202 54.8181 123.914H53.6421C53.2921 124.614 52.6201 125.244 51.5141 125.244C50.0161 125.244 49.0501 124.25 48.9661 122.514H54.9721ZM49.0221 121.646C49.2041 120.288 50.0721 119.364 51.4721 119.364C52.9141 119.364 53.6281 120.316 53.7681 121.646H49.0221ZM56.635 126H57.797V115.99H56.635V126ZM66.7026 122.514C66.7026 122.472 66.7166 122.402 66.7166 122.262C66.7166 120.302 65.6526 118.454 63.2306 118.454C61.0046 118.454 59.5346 120.036 59.5346 122.346C59.5346 124.572 60.9066 126.182 63.2166 126.182C64.8966 126.182 66.0866 125.202 66.5486 123.914H65.3726C65.0226 124.614 64.3506 125.244 63.2446 125.244C61.7466 125.244 60.7806 124.25 60.6966 122.514H66.7026ZM60.7526 121.646C60.9346 120.288 61.8026 119.364 63.2026 119.364C64.6446 119.364 65.3586 120.316 65.4986 121.646H60.7526ZM73.7974 123.676C73.4194 124.558 72.7754 125.244 71.5154 125.244C69.8914 125.244 69.0234 124.082 69.0234 122.318C69.0234 120.624 69.9474 119.392 71.5154 119.392C72.8174 119.392 73.4754 120.176 73.7974 121.044H74.9454C74.5534 119.602 73.4894 118.454 71.5154 118.454C69.3454 118.454 67.8334 119.98 67.8334 122.304C67.8334 124.67 69.2614 126.182 71.5014 126.182C73.3774 126.182 74.5114 125.076 74.9314 123.676H73.7974ZM76.8339 119.518V124.306C76.8339 125.72 77.6319 126.14 78.8499 126.14C78.9759 126.14 79.1159 126.126 79.2419 126.112V125.244C79.1299 125.258 79.0879 125.258 79.0179 125.258C78.3319 125.258 77.9819 124.95 77.9819 124.208V119.518H79.3819V118.65H77.9819V116.662H76.8339V118.65H75.6999V119.518H76.8339ZM84.1506 120.876H85.2566C85.3546 119.938 85.8866 119.364 87.0626 119.364C88.3086 119.364 88.8546 119.994 88.8546 121.562C88.2666 121.604 87.5246 121.702 86.9226 121.8C85.1306 122.08 83.8146 122.598 83.8146 124.026C83.8146 125.37 84.8926 126.14 86.3906 126.14C87.7206 126.14 88.4626 125.608 88.9246 124.866C88.9246 125.356 88.9666 125.692 89.0226 126H90.0866C89.9886 125.664 89.9466 125.16 89.9466 124.544V122.738C89.9466 122.402 89.9606 121.926 89.9606 121.632C89.9606 119.35 89.0226 118.454 87.1186 118.454C85.3406 118.454 84.1506 119.504 84.1506 120.876ZM88.8686 122.738C88.8686 124.432 88.0846 125.328 86.6706 125.328C85.6766 125.328 85.0326 124.838 85.0326 124.012C85.0326 122.962 86.1666 122.766 88.2666 122.458L88.8826 122.374C88.8686 122.444 88.8686 122.528 88.8686 122.738ZM95.7948 115.99V126H101.493V124.964H96.9848V115.99H95.7948ZM104.157 117.404V115.99H102.967V117.404H104.157ZM102.995 118.65V126H104.129V118.65H102.995ZM108.194 126H109.538L112.338 118.65H111.148L109.846 122.36C109.496 123.396 109.272 123.886 108.95 124.908H108.922C108.586 123.844 108.432 123.494 108.11 122.528L106.766 118.65H105.464C106.36 121.002 107.312 123.62 108.194 126ZM120.105 122.514C120.105 122.472 120.119 122.402 120.119 122.262C120.119 120.302 119.055 118.454 116.633 118.454C114.407 118.454 112.937 120.036 112.937 122.346C112.937 124.572 114.309 126.182 116.619 126.182C118.299 126.182 119.489 125.202 119.951 123.914H118.775C118.425 124.614 117.753 125.244 116.647 125.244C115.149 125.244 114.183 124.25 114.099 122.514H120.105ZM114.155 121.646C114.337 120.288 115.205 119.364 116.605 119.364C118.047 119.364 118.761 120.316 118.901 121.646H114.155ZM121.712 126H122.79V124.88C123.224 125.538 124.078 126.182 125.352 126.182C127.354 126.182 128.796 124.642 128.796 122.276C128.796 120.008 127.452 118.454 125.436 118.454C124.12 118.454 123.28 119.112 122.86 119.784C122.874 119.28 122.874 118.608 122.874 118.132V115.99H121.712V126ZM125.184 125.244C123.658 125.244 122.846 124.096 122.846 122.318C122.846 120.61 123.658 119.392 125.184 119.392C126.682 119.392 127.536 120.61 127.536 122.318C127.536 124.096 126.696 125.244 125.184 125.244ZM133.695 125.244C132.085 125.244 131.189 124.068 131.189 122.318C131.189 120.624 132.099 119.392 133.695 119.392C135.277 119.392 136.187 120.624 136.187 122.318C136.187 124.068 135.291 125.244 133.695 125.244ZM133.695 126.182C136.047 126.182 137.447 124.586 137.447 122.332C137.447 120.092 136.005 118.454 133.723 118.454C131.427 118.454 129.999 120.092 129.999 122.332C129.999 124.586 131.343 126.182 133.695 126.182ZM138.934 120.876H140.04C140.138 119.938 140.67 119.364 141.846 119.364C143.092 119.364 143.638 119.994 143.638 121.562C143.05 121.604 142.308 121.702 141.706 121.8C139.914 122.08 138.598 122.598 138.598 124.026C138.598 125.37 139.676 126.14 141.174 126.14C142.504 126.14 143.246 125.608 143.708 124.866C143.708 125.356 143.75 125.692 143.806 126H144.87C144.772 125.664 144.73 125.16 144.73 124.544V122.738C144.73 122.402 144.744 121.926 144.744 121.632C144.744 119.35 143.806 118.454 141.902 118.454C140.124 118.454 138.934 119.504 138.934 120.876ZM143.652 122.738C143.652 124.432 142.868 125.328 141.454 125.328C140.46 125.328 139.816 124.838 139.816 124.012C139.816 122.962 140.95 122.766 143.05 122.458L143.666 122.374C143.652 122.444 143.652 122.528 143.652 122.738ZM147.892 118.65H146.786C146.8 118.986 146.8 119.42 146.8 119.756V126H147.962V121.982C147.962 120.512 148.368 119.56 149.502 119.56C149.656 119.56 149.866 119.574 149.978 119.602V118.496C149.908 118.482 149.824 118.482 149.754 118.482C148.914 118.482 148.144 119.07 147.892 119.84V118.65ZM157.687 115.99H156.525V118.16C156.525 118.636 156.525 119.28 156.539 119.784C156.119 119.098 155.321 118.454 153.963 118.454C152.031 118.454 150.603 120.05 150.603 122.318C150.603 124.768 152.045 126.182 154.047 126.182C155.321 126.182 156.175 125.538 156.609 124.88V126H157.687V115.99ZM154.215 125.244C152.703 125.244 151.863 124.096 151.863 122.318C151.863 120.61 152.717 119.406 154.215 119.406C155.741 119.406 156.553 120.61 156.553 122.318C156.553 124.096 155.741 125.244 154.215 125.244ZM163.541 119.518V124.306C163.541 125.72 164.339 126.14 165.557 126.14C165.683 126.14 165.823 126.126 165.949 126.112V125.244C165.837 125.258 165.795 125.258 165.725 125.258C165.039 125.258 164.689 124.95 164.689 124.208V119.518H166.089V118.65H164.689V116.662H163.541V118.65H162.407V119.518H163.541ZM170.637 125.244C169.027 125.244 168.131 124.068 168.131 122.318C168.131 120.624 169.041 119.392 170.637 119.392C172.219 119.392 173.129 120.624 173.129 122.318C173.129 124.068 172.233 125.244 170.637 125.244ZM170.637 126.182C172.989 126.182 174.389 124.586 174.389 122.332C174.389 120.092 172.947 118.454 170.665 118.454C168.369 118.454 166.941 120.092 166.941 122.332C166.941 124.586 168.285 126.182 170.637 126.182ZM179.052 123.774C179.36 125.468 180.494 126.168 182.104 126.168C183.77 126.168 184.96 125.342 184.96 123.9C184.96 122.738 184.134 122.248 182.874 121.884L181.95 121.618C181.012 121.352 180.48 121.086 180.48 120.428C180.48 119.826 181.012 119.364 182.02 119.364C182.986 119.364 183.518 119.854 183.728 120.582H184.82C184.596 119.098 183.532 118.454 182.048 118.454C180.452 118.454 179.318 119.266 179.318 120.582C179.318 121.842 180.228 122.276 181.404 122.598L182.272 122.836C183.224 123.102 183.826 123.312 183.826 124.04C183.826 124.768 183.14 125.258 182.132 125.258C181.026 125.258 180.452 124.712 180.186 123.774H179.052ZM193.304 122.514C193.304 122.472 193.318 122.402 193.318 122.262C193.318 120.302 192.254 118.454 189.832 118.454C187.606 118.454 186.136 120.036 186.136 122.346C186.136 124.572 187.508 126.182 189.818 126.182C191.498 126.182 192.688 125.202 193.15 123.914H191.974C191.624 124.614 190.952 125.244 189.846 125.244C188.348 125.244 187.382 124.25 187.298 122.514H193.304ZM187.354 121.646C187.536 120.288 188.404 119.364 189.804 119.364C191.246 119.364 191.96 120.316 192.1 121.646H187.354ZM201.603 122.514C201.603 122.472 201.617 122.402 201.617 122.262C201.617 120.302 200.553 118.454 198.131 118.454C195.905 118.454 194.435 120.036 194.435 122.346C194.435 124.572 195.807 126.182 198.117 126.182C199.797 126.182 200.987 125.202 201.449 123.914H200.273C199.923 124.614 199.251 125.244 198.145 125.244C196.647 125.244 195.681 124.25 195.597 122.514H201.603ZM195.653 121.646C195.835 120.288 196.703 119.364 198.103 119.364C199.545 119.364 200.259 120.316 200.399 121.646H195.653ZM207.94 117.404V115.99H206.75V117.404H207.94ZM206.778 118.65V126H207.912V118.65H206.778ZM210.367 119.518V124.306C210.367 125.72 211.165 126.14 212.383 126.14C212.509 126.14 212.649 126.126 212.775 126.112V125.244C212.663 125.258 212.621 125.258 212.551 125.258C211.865 125.258 211.515 124.95 211.515 124.208V119.518H212.915V118.65H211.515V116.662H210.367V118.65H209.233V119.518H210.367Z" fill="#777E8B"/>
<path fill-rule="evenodd" clip-rule="evenodd" d="M126.325 75.8781C141.692 75.8781 154.149 63.4206 154.149 48.0534C154.149 32.6863 141.692 20.2288 126.325 20.2288C110.958 20.2288 98.5 32.6863 98.5 48.0534C98.5 63.4206 110.958 75.8781 126.325 75.8781ZM128.055 41.422C132.116 41.422 138.086 45.5392 138.086 51.715H113.99C113.99 45.5392 120.094 41.422 124.039 41.422V37.3049C121.935 36.4579 119.958 34.1092 120.094 31.1291H132.116C132.266 34.1719 130.234 36.4736 128.055 37.3049V41.422ZM124.039 53.7736H128.055V62.0079L126.047 66.1251L124.039 62.0079V53.7736Z" fill="#C0C6CF"/>
<path fill-rule="evenodd" clip-rule="evenodd" d="M166.169 26.184C166.121 26.8765 166.032 27.5576 165.904 28.2248H132.523C132.395 27.5576 132.306 26.8765 132.258 26.184H166.169ZM134.209 32.9875C133.859 32.3317 133.551 31.6502 133.288 30.9467H165.139C164.876 31.6502 164.568 32.3317 164.218 32.9875H134.209ZM136.018 35.7094C136.614 36.4429 137.27 37.1257 137.978 37.7504H160.448C161.157 37.1257 161.813 36.4429 162.409 35.7094H136.018ZM149.213 41.9929C146.704 41.9929 144.321 41.4489 142.176 40.4723H156.25C154.106 41.4489 151.723 41.9929 149.213 41.9929ZM132.285 23.4621C132.347 22.769 132.451 22.0879 132.594 21.4212H165.833C165.976 22.0879 166.08 22.769 166.142 23.4621H132.285ZM165.005 18.6993H133.422C133.703 17.9946 134.03 17.3131 134.399 16.6586H164.028C164.397 17.3131 164.724 17.9946 165.005 18.6993ZM162.12 13.9367C161.487 13.1988 160.792 12.5158 160.042 11.8958H138.384C137.635 12.5158 136.94 13.1988 136.307 13.9367H162.12ZM155.433 9.1739H142.994C144.92 8.41616 147.018 8 149.213 8C151.409 8 153.507 8.41616 155.433 9.1739Z" fill="#747E8C"/>
<mask id="mask0_778_33637" style="mask-type:alpha" maskUnits="userSpaceOnUse" x="98" y="20" width="57" height="56">
<path d="M154.153 48.0534C154.153 63.4206 141.696 75.8781 126.329 75.8781C110.961 75.8781 98.5039 63.4206 98.5039 48.0534C98.5039 32.6863 110.961 20.2288 126.329 20.2288C141.696 20.2288 154.153 32.6863 154.153 48.0534Z" fill="#C0C6CF"/>
</mask>
<g mask="url(#mask0_778_33637)">
<path fill-rule="evenodd" clip-rule="evenodd" d="M166.173 26.184C166.125 26.8765 166.036 27.5575 165.908 28.2247H132.527C132.399 27.5575 132.31 26.8765 132.262 26.184H166.173ZM134.213 32.9875C133.863 32.3317 133.554 31.6502 133.292 30.9466H165.143C164.88 31.6502 164.572 32.3317 164.222 32.9875H134.213ZM136.021 35.7094C136.618 36.4429 137.274 37.1257 137.982 37.7504H160.452C161.161 37.1257 161.817 36.4429 162.413 35.7094H136.021ZM149.217 41.9929C146.707 41.9929 144.325 41.4489 142.18 40.4723H156.254C154.11 41.4489 151.727 41.9929 149.217 41.9929ZM132.289 23.4621C132.351 22.769 132.455 22.0879 132.598 21.4212H165.837C165.98 22.0879 166.083 22.769 166.145 23.4621H132.289ZM133.426 18.6993C133.707 17.9946 134.034 17.3131 134.403 16.6585H164.032C164.401 17.3131 164.728 17.9946 165.009 18.6993H133.426ZM162.124 13.9366C161.491 13.1988 160.796 12.5158 160.046 11.8958H138.388C137.639 12.5158 136.944 13.1988 136.311 13.9366H162.124ZM149.217 8C151.413 8 153.511 8.41616 155.437 9.1739H142.998C144.924 8.41616 147.022 8 149.217 8Z" fill="white"/>
</g>
<path d="M88.4581 59.3965C88.4581 59.7992 88.1317 60.1256 87.7291 60.1256C87.3264 60.1256 87 59.7992 87 59.3965C87 58.9939 87.3264 58.6675 87.7291 58.6675C88.1317 58.6675 88.4581 58.9939 88.4581 59.3965Z" fill="#777E8B"/>
<path d="M91.6105 59.3959C91.6105 59.7986 91.284 60.125 90.8814 60.125C90.4788 60.125 90.1523 59.7986 90.1523 59.3959C90.1523 58.9933 90.4788 58.6669 90.8814 58.6669C91.284 58.6669 91.6105 58.9933 91.6105 59.3959Z" fill="#777E8B"/>
<path d="M94.7667 59.3959C94.7667 59.7986 94.4403 60.125 94.0377 60.125C93.635 60.125 93.3086 59.7986 93.3086 59.3959C93.3086 58.9933 93.635 58.6669 94.0377 58.6669C94.4403 58.6669 94.7667 58.9933 94.7667 59.3959Z" fill="#777E8B"/>
<path d="M97.9151 59.3959C97.9151 59.7986 97.5887 60.125 97.1861 60.125C96.7834 60.125 96.457 59.7986 96.457 59.3959C96.457 58.9933 96.7834 58.6669 97.1861 58.6669C97.5887 58.6669 97.9151 58.9933 97.9151 59.3959Z" fill="#777E8B"/>
<path d="M101.067 59.3959C101.067 59.7986 100.741 60.125 100.338 60.125C99.9358 60.125 99.6094 59.7986 99.6094 59.3959C99.6094 58.9933 99.9358 58.6669 100.338 58.6669C100.741 58.6669 101.067 58.9933 101.067 59.3959Z" fill="#777E8B"/>
<path d="M88.4581 62.5484C88.4581 62.951 88.1317 63.2775 87.7291 63.2775C87.3264 63.2775 87 62.951 87 62.5484C87 62.1457 87.3264 61.8193 87.7291 61.8193C88.1317 61.8193 88.4581 62.1457 88.4581 62.5484Z" fill="#777E8B"/>
<path d="M91.6105 62.5484C91.6105 62.951 91.284 63.2775 90.8814 63.2775C90.4788 63.2775 90.1523 62.951 90.1523 62.5484C90.1523 62.1457 90.4788 61.8193 90.8814 61.8193C91.284 61.8193 91.6105 62.1457 91.6105 62.5484Z" fill="#777E8B"/>
<path d="M94.7667 62.5484C94.7667 62.951 94.4403 63.2775 94.0377 63.2775C93.635 63.2775 93.3086 62.951 93.3086 62.5484C93.3086 62.1457 93.635 61.8193 94.0377 61.8193C94.4403 61.8193 94.7667 62.1457 94.7667 62.5484Z" fill="#777E8B"/>
<path d="M97.9151 62.5484C97.9151 62.951 97.5887 63.2775 97.1861 63.2775C96.7834 63.2775 96.457 62.951 96.457 62.5484C96.457 62.1457 96.7834 61.8193 97.1861 61.8193C97.5887 61.8193 97.9151 62.1457 97.9151 62.5484Z" fill="#777E8B"/>
<path d="M101.067 62.5484C101.067 62.951 100.741 63.2775 100.338 63.2775C99.9358 63.2775 99.6094 62.951 99.6094 62.5484C99.6094 62.1457 99.9358 61.8193 100.338 61.8193C100.741 61.8193 101.067 62.1457 101.067 62.5484Z" fill="#777E8B"/>
<path d="M88.4581 65.7013C88.4581 66.104 88.1317 66.4304 87.7291 66.4304C87.3264 66.4304 87 66.104 87 65.7013C87 65.2987 87.3264 64.9723 87.7291 64.9723C88.1317 64.9723 88.4581 65.2987 88.4581 65.7013Z" fill="#777E8B"/>
<path d="M91.6105 65.7013C91.6105 66.104 91.284 66.4304 90.8814 66.4304C90.4788 66.4304 90.1523 66.104 90.1523 65.7013C90.1523 65.2987 90.4788 64.9723 90.8814 64.9723C91.284 64.9723 91.6105 65.2987 91.6105 65.7013Z" fill="#777E8B"/>
<path d="M94.7667 65.7013C94.7667 66.104 94.4403 66.4304 94.0377 66.4304C93.635 66.4304 93.3086 66.104 93.3086 65.7013C93.3086 65.2987 93.635 64.9723 94.0377 64.9723C94.4403 64.9723 94.7667 65.2987 94.7667 65.7013Z" fill="#777E8B"/>
<path d="M97.9151 65.7013C97.9151 66.104 97.5887 66.4304 97.1861 66.4304C96.7834 66.4304 96.457 66.104 96.457 65.7013C96.457 65.2987 96.7834 64.9723 97.1861 64.9723C97.5887 64.9723 97.9151 65.2987 97.9151 65.7013Z" fill="#777E8B"/>
<path d="M101.067 65.7013C101.067 66.104 100.741 66.4304 100.338 66.4304C99.9358 66.4304 99.6094 66.104 99.6094 65.7013C99.6094 65.2987 99.9358 64.9723 100.338 64.9723C100.741 64.9723 101.067 65.2987 101.067 65.7013Z" fill="#777E8B"/>
<path d="M88.4581 68.8538C88.4581 69.2565 88.1317 69.5829 87.7291 69.5829C87.3264 69.5829 87 69.2565 87 68.8538C87 68.4512 87.3264 68.1248 87.7291 68.1248C88.1317 68.1248 88.4581 68.4512 88.4581 68.8538Z" fill="#777E8B"/>
<path d="M91.6105 68.8538C91.6105 69.2565 91.284 69.5829 90.8814 69.5829C90.4788 69.5829 90.1523 69.2565 90.1523 68.8538C90.1523 68.4512 90.4788 68.1248 90.8814 68.1248C91.284 68.1248 91.6105 68.4512 91.6105 68.8538Z" fill="#777E8B"/>
<path d="M94.7667 68.8538C94.7667 69.2565 94.4403 69.5829 94.0377 69.5829C93.635 69.5829 93.3086 69.2565 93.3086 68.8538C93.3086 68.4512 93.635 68.1248 94.0377 68.1248C94.4403 68.1248 94.7667 68.4512 94.7667 68.8538Z" fill="#777E8B"/>
<path d="M97.9151 68.8538C97.9151 69.2565 97.5887 69.5829 97.1861 69.5829C96.7834 69.5829 96.457 69.2565 96.457 68.8538C96.457 68.4512 96.7834 68.1248 97.1861 68.1248C97.5887 68.1248 97.9151 68.4512 97.9151 68.8538Z" fill="#777E8B"/>
<path d="M101.067 68.8538C101.067 69.2565 100.741 69.5829 100.338 69.5829C99.9358 69.5829 99.6094 69.2565 99.6094 68.8538C99.6094 68.4512 99.9358 68.1248 100.338 68.1248C100.741 68.1248 101.067 68.4512 101.067 68.8538Z" fill="#777E8B"/>
<path d="M88.4581 71.7437C88.4581 72.1464 88.1317 72.4728 87.7291 72.4728C87.3264 72.4728 87 72.1464 87 71.7437C87 71.3411 87.3264 71.0146 87.7291 71.0146C88.1317 71.0146 88.4581 71.3411 88.4581 71.7437Z" fill="#777E8B"/>
<path d="M91.6105 71.7437C91.6105 72.1464 91.284 72.4728 90.8814 72.4728C90.4788 72.4728 90.1523 72.1464 90.1523 71.7437C90.1523 71.3411 90.4788 71.0146 90.8814 71.0146C91.284 71.0146 91.6105 71.3411 91.6105 71.7437Z" fill="#777E8B"/>
<path d="M94.7667 71.7437C94.7667 72.1464 94.4403 72.4728 94.0377 72.4728C93.635 72.4728 93.3086 72.1464 93.3086 71.7437C93.3086 71.3411 93.635 71.0146 94.0377 71.0146C94.4403 71.0146 94.7667 71.3411 94.7667 71.7437Z" fill="#777E8B"/>
<path d="M97.9151 71.7437C97.9151 72.1464 97.5887 72.4728 97.1861 72.4728C96.7834 72.4728 96.457 72.1464 96.457 71.7437C96.457 71.3411 96.7834 71.0146 97.1861 71.0146C97.5887 71.0146 97.9151 71.3411 97.9151 71.7437Z" fill="#777E8B"/>
<path d="M101.067 71.7437C101.067 72.1464 100.741 72.4728 100.338 72.4728C99.9358 72.4728 99.6094 72.1464 99.6094 71.7437C99.6094 71.3411 99.9358 71.0146 100.338 71.0146C100.741 71.0146 101.067 71.3411 101.067 71.7437Z" fill="#777E8B"/>
<path d="M88.4581 74.923C88.4581 75.3257 88.1317 75.6521 87.7291 75.6521C87.3264 75.6521 87 75.3257 87 74.923C87 74.5204 87.3264 74.194 87.7291 74.194C88.1317 74.194 88.4581 74.5204 88.4581 74.923Z" fill="#777E8B"/>
<path d="M91.6105 74.9227C91.6105 75.3253 91.284 75.6517 90.8814 75.6517C90.4788 75.6517 90.1523 75.3253 90.1523 74.9227C90.1523 74.52 90.4788 74.1936 90.8814 74.1936C91.284 74.1936 91.6105 74.52 91.6105 74.9227Z" fill="#777E8B"/>
<path d="M94.7667 74.9227C94.7667 75.3253 94.4403 75.6517 94.0377 75.6517C93.635 75.6517 93.3086 75.3253 93.3086 74.9227C93.3086 74.52 93.635 74.1936 94.0377 74.1936C94.4403 74.1936 94.7667 74.52 94.7667 74.9227Z" fill="#777E8B"/>
<path d="M97.9151 74.9227C97.9151 75.3253 97.5887 75.6517 97.1861 75.6517C96.7834 75.6517 96.457 75.3253 96.457 74.9227C96.457 74.52 96.7834 74.1936 97.1861 74.1936C97.5887 74.1936 97.9151 74.52 97.9151 74.9227Z" fill="#777E8B"/>
<path d="M101.067 74.9227C101.067 75.3253 100.741 75.6517 100.338 75.6517C99.9358 75.6517 99.6094 75.3253 99.6094 74.9227C99.6094 74.52 99.9358 74.1936 100.338 74.1936C100.741 74.1936 101.067 74.52 101.067 74.9227Z" fill="#777E8B"/>
<path d="M88.4581 78.0752C88.4581 78.4779 88.1317 78.8043 87.7291 78.8043C87.3264 78.8043 87 78.4779 87 78.0752C87 77.6726 87.3264 77.3462 87.7291 77.3462C88.1317 77.3462 88.4581 77.6726 88.4581 78.0752Z" fill="#777E8B"/>
<path d="M91.6105 78.0752C91.6105 78.4779 91.284 78.8043 90.8814 78.8043C90.4788 78.8043 90.1523 78.4779 90.1523 78.0752C90.1523 77.6726 90.4788 77.3462 90.8814 77.3462C91.284 77.3462 91.6105 77.6726 91.6105 78.0752Z" fill="#777E8B"/>
<path d="M94.7667 78.0752C94.7667 78.4779 94.4403 78.8043 94.0377 78.8043C93.635 78.8043 93.3086 78.4779 93.3086 78.0752C93.3086 77.6726 93.635 77.3462 94.0377 77.3462C94.4403 77.3462 94.7667 77.6726 94.7667 78.0752Z" fill="#777E8B"/>
<path d="M97.9151 78.0752C97.9151 78.4779 97.5887 78.8043 97.1861 78.8043C96.7834 78.8043 96.457 78.4779 96.457 78.0752C96.457 77.6726 96.7834 77.3462 97.1861 77.3462C97.5887 77.3462 97.9151 77.6726 97.9151 78.0752Z" fill="#777E8B"/>
<path d="M101.067 78.0752C101.067 78.4779 100.741 78.8043 100.338 78.8043C99.9358 78.8043 99.6094 78.4779 99.6094 78.0752C99.6094 77.6726 99.9358 77.3462 100.338 77.3462C100.741 77.3462 101.067 77.6726 101.067 78.0752Z" fill="#777E8B"/>
<path d="M88.4581 81.2281C88.4581 81.6307 88.1317 81.9571 87.7291 81.9571C87.3264 81.9571 87 81.6307 87 81.2281C87 80.8254 87.3264 80.499 87.7291 80.499C88.1317 80.499 88.4581 80.8254 88.4581 81.2281Z" fill="#777E8B"/>
<path d="M91.6105 81.2281C91.6105 81.6307 91.284 81.9571 90.8814 81.9571C90.4788 81.9571 90.1523 81.6307 90.1523 81.2281C90.1523 80.8254 90.4788 80.499 90.8814 80.499C91.284 80.499 91.6105 80.8254 91.6105 81.2281Z" fill="#777E8B"/>
<path d="M94.7667 81.2281C94.7667 81.6307 94.4403 81.9571 94.0377 81.9571C93.635 81.9571 93.3086 81.6307 93.3086 81.2281C93.3086 80.8254 93.635 80.499 94.0377 80.499C94.4403 80.499 94.7667 80.8254 94.7667 81.2281Z" fill="#777E8B"/>
<path d="M97.9151 81.2281C97.9151 81.6307 97.5887 81.9571 97.1861 81.9571C96.7834 81.9571 96.457 81.6307 96.457 81.2281C96.457 80.8254 96.7834 80.499 97.1861 80.499C97.5887 80.499 97.9151 80.8254 97.9151 81.2281Z" fill="#777E8B"/>
<path d="M101.067 81.2281C101.067 81.6307 100.741 81.9571 100.338 81.9571C99.9358 81.9571 99.6094 81.6307 99.6094 81.2281C99.6094 80.8254 99.9358 80.499 100.338 80.499C100.741 80.499 101.067 80.8254 101.067 81.2281Z" fill="#777E8B"/>
<path d="M88.4581 84.3807C88.4581 84.7833 88.1317 85.1097 87.7291 85.1097C87.3264 85.1097 87 84.7833 87 84.3807C87 83.978 87.3264 83.6516 87.7291 83.6516C88.1317 83.6516 88.4581 83.978 88.4581 84.3807Z" fill="#777E8B"/>
<path d="M91.6105 84.3807C91.6105 84.7833 91.284 85.1097 90.8814 85.1097C90.4788 85.1097 90.1523 84.7833 90.1523 84.3807C90.1523 83.978 90.4788 83.6516 90.8814 83.6516C91.284 83.6516 91.6105 83.978 91.6105 84.3807Z" fill="#777E8B"/>
<path d="M94.7667 84.3807C94.7667 84.7833 94.4403 85.1097 94.0377 85.1097C93.635 85.1097 93.3086 84.7833 93.3086 84.3807C93.3086 83.978 93.635 83.6516 94.0377 83.6516C94.4403 83.6516 94.7667 83.978 94.7667 84.3807Z" fill="#777E8B"/>
<path d="M97.9151 84.3807C97.9151 84.7833 97.5887 85.1097 97.1861 85.1097C96.7834 85.1097 96.457 84.7833 96.457 84.3807C96.457 83.978 96.7834 83.6516 97.1861 83.6516C97.5887 83.6516 97.9151 83.978 97.9151 84.3807Z" fill="#777E8B"/>
<path d="M101.067 84.3807C101.067 84.7833 100.741 85.1097 100.338 85.1097C99.9358 85.1097 99.6094 84.7833 99.6094 84.3807C99.6094 83.978 99.9358 83.6516 100.338 83.6516C100.741 83.6516 101.067 83.978 101.067 84.3807Z" fill="#777E8B"/>
<path d="M88.4581 87.2706C88.4581 87.6732 88.1317 87.9996 87.7291 87.9996C87.3264 87.9996 87 87.6732 87 87.2706C87 86.8679 87.3264 86.5415 87.7291 86.5415C88.1317 86.5415 88.4581 86.8679 88.4581 87.2706Z" fill="#777E8B"/>
<path d="M91.6105 87.2706C91.6105 87.6732 91.284 87.9996 90.8814 87.9996C90.4788 87.9996 90.1523 87.6732 90.1523 87.2706C90.1523 86.8679 90.4788 86.5415 90.8814 86.5415C91.284 86.5415 91.6105 86.8679 91.6105 87.2706Z" fill="#777E8B"/>
<path d="M94.7667 87.2706C94.7667 87.6732 94.4403 87.9996 94.0377 87.9996C93.635 87.9996 93.3086 87.6732 93.3086 87.2706C93.3086 86.8679 93.635 86.5415 94.0377 86.5415C94.4403 86.5415 94.7667 86.8679 94.7667 87.2706Z" fill="#777E8B"/>
<path d="M97.9151 87.2706C97.9151 87.6732 97.5887 87.9996 97.1861 87.9996C96.7834 87.9996 96.457 87.6732 96.457 87.2706C96.457 86.8679 96.7834 86.5415 97.1861 86.5415C97.5887 86.5415 97.9151 86.8679 97.9151 87.2706Z" fill="#777E8B"/>
<path d="M101.067 87.2706C101.067 87.6732 100.741 87.9996 100.338 87.9996C99.9358 87.9996 99.6094 87.6732 99.6094 87.2706C99.6094 86.8679 99.9358 86.5415 100.338 86.5415C100.741 86.5415 101.067 86.8679 101.067 87.2706Z" fill="#777E8B"/>
<path d="M104.247 59.3962C104.247 59.7988 103.921 60.1252 103.518 60.1252C103.115 60.1252 102.789 59.7988 102.789 59.3962C102.789 58.9935 103.115 58.6671 103.518 58.6671C103.921 58.6671 104.247 58.9935 104.247 59.3962Z" fill="#777E8B"/>
<path d="M107.4 59.3959C107.4 59.7986 107.073 60.125 106.67 60.125C106.268 60.125 105.941 59.7986 105.941 59.3959C105.941 58.9933 106.268 58.6669 106.67 58.6669C107.073 58.6669 107.4 58.9933 107.4 59.3959Z" fill="#777E8B"/>
<path d="M110.552 59.3959C110.552 59.7986 110.225 60.125 109.823 60.125C109.42 60.125 109.094 59.7986 109.094 59.3959C109.094 58.9933 109.42 58.6669 109.823 58.6669C110.225 58.6669 110.552 58.9933 110.552 59.3959Z" fill="#777E8B"/>
<path d="M113.704 59.3959C113.704 59.7986 113.378 60.125 112.975 60.125C112.573 60.125 112.246 59.7986 112.246 59.3959C112.246 58.9933 112.573 58.6669 112.975 58.6669C113.378 58.6669 113.704 58.9933 113.704 59.3959Z" fill="#777E8B"/>
<path d="M116.857 59.3959C116.857 59.7986 116.53 60.125 116.127 60.125C115.725 60.125 115.398 59.7986 115.398 59.3959C115.398 58.9933 115.725 58.6669 116.127 58.6669C116.53 58.6669 116.857 58.9933 116.857 59.3959Z" fill="#777E8B"/>
<path d="M104.247 62.5484C104.247 62.951 103.921 63.2775 103.518 63.2775C103.115 63.2775 102.789 62.951 102.789 62.5484C102.789 62.1457 103.115 61.8193 103.518 61.8193C103.921 61.8193 104.247 62.1457 104.247 62.5484Z" fill="#777E8B"/>
<path d="M107.4 62.5484C107.4 62.951 107.073 63.2775 106.67 63.2775C106.268 63.2775 105.941 62.951 105.941 62.5484C105.941 62.1457 106.268 61.8193 106.67 61.8193C107.073 61.8193 107.4 62.1457 107.4 62.5484Z" fill="#777E8B"/>
<path d="M110.552 62.5484C110.552 62.951 110.225 63.2775 109.823 63.2775C109.42 63.2775 109.094 62.951 109.094 62.5484C109.094 62.1457 109.42 61.8193 109.823 61.8193C110.225 61.8193 110.552 62.1457 110.552 62.5484Z" fill="#777E8B"/>
<path d="M113.704 62.5484C113.704 62.951 113.378 63.2775 112.975 63.2775C112.573 63.2775 112.246 62.951 112.246 62.5484C112.246 62.1457 112.573 61.8193 112.975 61.8193C113.378 61.8193 113.704 62.1457 113.704 62.5484Z" fill="#777E8B"/>
<path d="M116.857 62.5484C116.857 62.951 116.53 63.2775 116.127 63.2775C115.725 63.2775 115.398 62.951 115.398 62.5484C115.398 62.1457 115.725 61.8193 116.127 61.8193C116.53 61.8193 116.857 62.1457 116.857 62.5484Z" fill="#777E8B"/>
<path d="M104.247 65.7013C104.247 66.104 103.921 66.4304 103.518 66.4304C103.115 66.4304 102.789 66.104 102.789 65.7013C102.789 65.2987 103.115 64.9723 103.518 64.9723C103.921 64.9723 104.247 65.2987 104.247 65.7013Z" fill="#777E8B"/>
<path d="M107.4 65.7013C107.4 66.104 107.073 66.4304 106.67 66.4304C106.268 66.4304 105.941 66.104 105.941 65.7013C105.941 65.2987 106.268 64.9723 106.67 64.9723C107.073 64.9723 107.4 65.2987 107.4 65.7013Z" fill="#777E8B"/>
<path d="M110.552 65.7013C110.552 66.104 110.225 66.4304 109.823 66.4304C109.42 66.4304 109.094 66.104 109.094 65.7013C109.094 65.2987 109.42 64.9723 109.823 64.9723C110.225 64.9723 110.552 65.2987 110.552 65.7013Z" fill="#777E8B"/>
<path d="M113.704 65.7013C113.704 66.104 113.378 66.4304 112.975 66.4304C112.573 66.4304 112.246 66.104 112.246 65.7013C112.246 65.2987 112.573 64.9723 112.975 64.9723C113.378 64.9723 113.704 65.2987 113.704 65.7013Z" fill="#777E8B"/>
<path d="M116.857 65.7013C116.857 66.104 116.53 66.4304 116.127 66.4304C115.725 66.4304 115.398 66.104 115.398 65.7013C115.398 65.2987 115.725 64.9723 116.127 64.9723C116.53 64.9723 116.857 65.2987 116.857 65.7013Z" fill="#777E8B"/>
<path d="M104.247 68.8538C104.247 69.2565 103.921 69.5829 103.518 69.5829C103.115 69.5829 102.789 69.2565 102.789 68.8538C102.789 68.4512 103.115 68.1248 103.518 68.1248C103.921 68.1248 104.247 68.4512 104.247 68.8538Z" fill="#777E8B"/>
<path d="M107.4 68.8538C107.4 69.2565 107.073 69.5829 106.67 69.5829C106.268 69.5829 105.941 69.2565 105.941 68.8538C105.941 68.4512 106.268 68.1248 106.67 68.1248C107.073 68.1248 107.4 68.4512 107.4 68.8538Z" fill="#777E8B"/>
<path d="M110.552 68.8538C110.552 69.2565 110.225 69.5829 109.823 69.5829C109.42 69.5829 109.094 69.2565 109.094 68.8538C109.094 68.4512 109.42 68.1248 109.823 68.1248C110.225 68.1248 110.552 68.4512 110.552 68.8538Z" fill="#777E8B"/>
<path d="M113.704 68.8538C113.704 69.2565 113.378 69.5829 112.975 69.5829C112.573 69.5829 112.246 69.2565 112.246 68.8538C112.246 68.4512 112.573 68.1248 112.975 68.1248C113.378 68.1248 113.704 68.4512 113.704 68.8538Z" fill="#777E8B"/>
<path d="M116.857 68.8538C116.857 69.2565 116.53 69.5829 116.127 69.5829C115.725 69.5829 115.398 69.2565 115.398 68.8538C115.398 68.4512 115.725 68.1248 116.127 68.1248C116.53 68.1248 116.857 68.4512 116.857 68.8538Z" fill="#777E8B"/>
<path d="M104.247 71.7437C104.247 72.1464 103.921 72.4728 103.518 72.4728C103.115 72.4728 102.789 72.1464 102.789 71.7437C102.789 71.3411 103.115 71.0146 103.518 71.0146C103.921 71.0146 104.247 71.3411 104.247 71.7437Z" fill="#777E8B"/>
<path d="M107.4 71.7437C107.4 72.1464 107.073 72.4728 106.67 72.4728C106.268 72.4728 105.941 72.1464 105.941 71.7437C105.941 71.3411 106.268 71.0146 106.67 71.0146C107.073 71.0146 107.4 71.3411 107.4 71.7437Z" fill="#777E8B"/>
<path d="M110.552 71.7437C110.552 72.1464 110.225 72.4728 109.823 72.4728C109.42 72.4728 109.094 72.1464 109.094 71.7437C109.094 71.3411 109.42 71.0146 109.823 71.0146C110.225 71.0146 110.552 71.3411 110.552 71.7437Z" fill="#777E8B"/>
<path d="M113.704 71.7437C113.704 72.1464 113.378 72.4728 112.975 72.4728C112.573 72.4728 112.246 72.1464 112.246 71.7437C112.246 71.3411 112.573 71.0146 112.975 71.0146C113.378 71.0146 113.704 71.3411 113.704 71.7437Z" fill="#777E8B"/>
<path d="M116.857 71.7437C116.857 72.1464 116.53 72.4728 116.127 72.4728C115.725 72.4728 115.398 72.1464 115.398 71.7437C115.398 71.3411 115.725 71.0146 116.127 71.0146C116.53 71.0146 116.857 71.3411 116.857 71.7437Z" fill="#777E8B"/>
<path d="M104.247 74.9234C104.247 75.326 103.921 75.6525 103.518 75.6525C103.115 75.6525 102.789 75.326 102.789 74.9234C102.789 74.5207 103.115 74.1943 103.518 74.1943C103.921 74.1943 104.247 74.5207 104.247 74.9234Z" fill="#777E8B"/>
<path d="M107.4 74.923C107.4 75.3257 107.073 75.6521 106.67 75.6521C106.268 75.6521 105.941 75.3257 105.941 74.923C105.941 74.5204 106.268 74.194 106.67 74.194C107.073 74.194 107.4 74.5204 107.4 74.923Z" fill="#777E8B"/>
<path d="M110.552 74.923C110.552 75.3257 110.225 75.6521 109.823 75.6521C109.42 75.6521 109.094 75.3257 109.094 74.923C109.094 74.5204 109.42 74.194 109.823 74.194C110.225 74.194 110.552 74.5204 110.552 74.923Z" fill="#777E8B"/>
<path d="M113.704 74.923C113.704 75.3257 113.378 75.6521 112.975 75.6521C112.573 75.6521 112.246 75.3257 112.246 74.923C112.246 74.5204 112.573 74.194 112.975 74.194C113.378 74.194 113.704 74.5204 113.704 74.923Z" fill="#777E8B"/>
<path d="M116.857 74.923C116.857 75.3257 116.53 75.6521 116.127 75.6521C115.725 75.6521 115.398 75.3257 115.398 74.923C115.398 74.5204 115.725 74.194 116.127 74.194C116.53 74.194 116.857 74.5204 116.857 74.923Z" fill="#777E8B"/>
<path d="M104.247 78.0756C104.247 78.4783 103.921 78.8047 103.518 78.8047C103.115 78.8047 102.789 78.4783 102.789 78.0756C102.789 77.673 103.115 77.3466 103.518 77.3466C103.921 77.3466 104.247 77.673 104.247 78.0756Z" fill="#777E8B"/>
<path d="M107.4 78.0756C107.4 78.4783 107.073 78.8047 106.67 78.8047C106.268 78.8047 105.941 78.4783 105.941 78.0756C105.941 77.673 106.268 77.3466 106.67 77.3466C107.073 77.3466 107.4 77.673 107.4 78.0756Z" fill="#777E8B"/>
<path d="M110.552 78.0756C110.552 78.4783 110.225 78.8047 109.823 78.8047C109.42 78.8047 109.094 78.4783 109.094 78.0756C109.094 77.673 109.42 77.3466 109.823 77.3466C110.225 77.3466 110.552 77.673 110.552 78.0756Z" fill="#777E8B"/>
<path d="M113.704 78.0756C113.704 78.4783 113.378 78.8047 112.975 78.8047C112.573 78.8047 112.246 78.4783 112.246 78.0756C112.246 77.673 112.573 77.3466 112.975 77.3466C113.378 77.3466 113.704 77.673 113.704 78.0756Z" fill="#777E8B"/>
<path d="M116.857 78.0756C116.857 78.4783 116.53 78.8047 116.127 78.8047C115.725 78.8047 115.398 78.4783 115.398 78.0756C115.398 77.673 115.725 77.3466 116.127 77.3466C116.53 77.3466 116.857 77.673 116.857 78.0756Z" fill="#777E8B"/>
<path d="M104.247 81.2284C104.247 81.6311 103.921 81.9575 103.518 81.9575C103.115 81.9575 102.789 81.6311 102.789 81.2284C102.789 80.8258 103.115 80.4994 103.518 80.4994C103.921 80.4994 104.247 80.8258 104.247 81.2284Z" fill="#777E8B"/>
<path d="M107.4 81.2284C107.4 81.6311 107.073 81.9575 106.67 81.9575C106.268 81.9575 105.941 81.6311 105.941 81.2284C105.941 80.8258 106.268 80.4994 106.67 80.4994C107.073 80.4994 107.4 80.8258 107.4 81.2284Z" fill="#777E8B"/>
<path d="M110.552 81.2284C110.552 81.6311 110.225 81.9575 109.823 81.9575C109.42 81.9575 109.094 81.6311 109.094 81.2284C109.094 80.8258 109.42 80.4994 109.823 80.4994C110.225 80.4994 110.552 80.8258 110.552 81.2284Z" fill="#777E8B"/>
<path d="M113.704 81.2284C113.704 81.6311 113.378 81.9575 112.975 81.9575C112.573 81.9575 112.246 81.6311 112.246 81.2284C112.246 80.8258 112.573 80.4994 112.975 80.4994C113.378 80.4994 113.704 80.8258 113.704 81.2284Z" fill="#777E8B"/>
<path d="M116.857 81.2284C116.857 81.6311 116.53 81.9575 116.127 81.9575C115.725 81.9575 115.398 81.6311 115.398 81.2284C115.398 80.8258 115.725 80.4994 116.127 80.4994C116.53 80.4994 116.857 80.8258 116.857 81.2284Z" fill="#777E8B"/>
<path d="M104.247 84.3809C104.247 84.7836 103.921 85.11 103.518 85.11C103.115 85.11 102.789 84.7836 102.789 84.3809C102.789 83.9783 103.115 83.6519 103.518 83.6519C103.921 83.6519 104.247 83.9783 104.247 84.3809Z" fill="#777E8B"/>
<path d="M107.4 84.3809C107.4 84.7836 107.073 85.11 106.67 85.11C106.268 85.11 105.941 84.7836 105.941 84.3809C105.941 83.9783 106.268 83.6519 106.67 83.6519C107.073 83.6519 107.4 83.9783 107.4 84.3809Z" fill="#777E8B"/>
<path d="M110.552 84.3809C110.552 84.7836 110.225 85.11 109.823 85.11C109.42 85.11 109.094 84.7836 109.094 84.3809C109.094 83.9783 109.42 83.6519 109.823 83.6519C110.225 83.6519 110.552 83.9783 110.552 84.3809Z" fill="#777E8B"/>
<path d="M113.704 84.3809C113.704 84.7836 113.378 85.11 112.975 85.11C112.573 85.11 112.246 84.7836 112.246 84.3809C112.246 83.9783 112.573 83.6519 112.975 83.6519C113.378 83.6519 113.704 83.9783 113.704 84.3809Z" fill="#777E8B"/>
<path d="M116.857 84.3809C116.857 84.7836 116.53 85.11 116.127 85.11C115.725 85.11 115.398 84.7836 115.398 84.3809C115.398 83.9783 115.725 83.6519 116.127 83.6519C116.53 83.6519 116.857 83.9783 116.857 84.3809Z" fill="#777E8B"/>
<path d="M104.247 87.2709C104.247 87.6736 103.921 88 103.518 88C103.115 88 102.789 87.6736 102.789 87.2709C102.789 86.8683 103.115 86.5419 103.518 86.5419C103.921 86.5419 104.247 86.8683 104.247 87.2709Z" fill="#777E8B"/>
<path d="M107.4 87.2709C107.4 87.6736 107.073 88 106.67 88C106.268 88 105.941 87.6736 105.941 87.2709C105.941 86.8683 106.268 86.5419 106.67 86.5419C107.073 86.5419 107.4 86.8683 107.4 87.2709Z" fill="#777E8B"/>
<path d="M110.552 87.2709C110.552 87.6736 110.225 88 109.823 88C109.42 88 109.094 87.6736 109.094 87.2709C109.094 86.8683 109.42 86.5419 109.823 86.5419C110.225 86.5419 110.552 86.8683 110.552 87.2709Z" fill="#777E8B"/>
<path d="M113.704 87.2709C113.704 87.6736 113.378 88 112.975 88C112.573 88 112.246 87.6736 112.246 87.2709C112.246 86.8683 112.573 86.5419 112.975 86.5419C113.378 86.5419 113.704 86.8683 113.704 87.2709Z" fill="#777E8B"/>
<path d="M116.857 87.2709C116.857 87.6736 116.53 88 116.127 88C115.725 88 115.398 87.6736 115.398 87.2709C115.398 86.8683 115.725 86.5419 116.127 86.5419C116.53 86.5419 116.857 86.8683 116.857 87.2709Z" fill="#777E8B"/>
</svg>
